<?xml version="1.0" encoding="utf-8"?>
<!-- Generator: Adobe Illustrator 15.0.0, SVG Export Plug-In . SVG Version: 6.00 Build 0)  -->
<!DOCTYPE svg PUBLIC "-//W3C//DTD SVG 1.1//EN" "http://www.w3.org/Graphics/SVG/1.1/DTD/svg11.dtd">
<svg version="1.1" id="Layer_1" xmlns="http://www.w3.org/2000/svg" xmlns:xlink="http://www.w3.org/1999/xlink" x="0px" y="0px"
	 width="28.348px" height="28.348px" viewBox="0 0 28.348 28.348" enable-background="new 0 0 28.348 28.348" xml:space="preserve">
<g>
	<g>
		<g>
			<path fill="#F68A1F" d="M14.121,12.447c-0.477,0-0.88,0.172-1.214,0.514c-0.334,0.343-0.501,0.751-0.501,1.227
				c0,0.465,0.169,0.867,0.507,1.204c0.339,0.338,0.741,0.508,1.208,0.508c0.475,0,0.881-0.17,1.219-0.508
				c0.34-0.337,0.508-0.739,0.508-1.204c0-0.483-0.168-0.896-0.508-1.232C15.002,12.615,14.595,12.447,14.121,12.447z"/>
		</g>
	</g>
	<g>
		<polygon fill="#F68A1F" points="10.759,14.171 4.198,9.465 4.199,12.441 0.031,12.447 0.031,15.898 4.201,15.903 4.199,18.881
			"/>
	</g>
	<g>
		<polygon fill="#F68A1F" points="17.618,14.171 24.179,9.465 24.178,12.441 28.347,12.447 28.347,15.898 24.178,15.903
			24.178,18.881 		"/>
	</g>
</g>
</svg>
