<?xml version="1.0" encoding="utf-8"?>
<!-- Generator: Adobe Illustrator 15.0.0, SVG Export Plug-In . SVG Version: 6.00 Build 0)  -->
<!DOCTYPE svg PUBLIC "-//W3C//DTD SVG 1.1//EN" "http://www.w3.org/Graphics/SVG/1.1/DTD/svg11.dtd">
<svg version="1.1" id="Layer_1" xmlns="http://www.w3.org/2000/svg" xmlns:xlink="http://www.w3.org/1999/xlink" x="0px" y="0px"
	 width="28.347px" height="28.347px" viewBox="0 0 28.347 28.347" enable-background="new 0 0 28.347 28.347" xml:space="preserve">
<g>
	<g>
		<g>
			<g>
				<g>
					<polygon fill="#84B240" points="18.951,7.528 16.789,11.198 14.623,14.867 12.517,11.138 10.411,7.408 14.681,7.468 					"/>
				</g>
			</g>
		</g>
		<g>
			<g>
				<path fill="#84B240" d="M16.085,10.519l0.121-7.076l-2.757-0.064l-0.125,7.239C14.23,10.461,15.164,10.442,16.085,10.519z"/>
			</g>
		</g>
	</g>
	<g id="g2485">
		<g id="path2487">
			<path fill="#84B240" d="M14.316,25.432H14.03c-0.066,0-0.132-0.008-0.196-0.022l-0.258-0.058
				c-0.058-0.013-0.114-0.031-0.168-0.055l-0.258-0.114c-0.047-0.021-0.092-0.046-0.134-0.074l-0.258-0.172
				c-0.036-0.024-0.071-0.051-0.103-0.08l-0.612-0.612l-0.588-0.77c-0.021-0.026-0.04-0.056-0.058-0.085l-1.084-2.02L6.67,13.413
				L5.779,12.36L5.366,12.2l-0.18,0.063l-0.379,0.309L4.15,13.412l-1.007,1.886l-1.282,2.957c-0.188,0.46-0.713,0.685-1.173,0.493
				c-0.46-0.188-0.681-0.713-0.494-1.173l1.331-3.065l1.108-2.068c0.018-0.029,0.037-0.059,0.058-0.085L3.537,11.3l0.355-0.326
				c0.031-0.028,0.065-0.054,0.1-0.077l0.258-0.173c0.043-0.03,0.09-0.056,0.138-0.076l0.257-0.113
				c0.054-0.024,0.11-0.042,0.167-0.055l0.258-0.058c0.064-0.015,0.13-0.022,0.196-0.022h0.286c0.066,0,0.132,0.008,0.196,0.022
				l0.258,0.058c0.058,0.013,0.114,0.03,0.167,0.055l0.257,0.113c0.048,0.021,0.094,0.047,0.138,0.076l0.258,0.173
				c0.035,0.023,0.069,0.049,0.1,0.077l0.613,0.612l0.588,0.77c0.021,0.027,0.041,0.056,0.058,0.086l1.084,2.02l3.642,7.957
				l0.89,1.052l0.415,0.161l0.18-0.063l0.376-0.308l0.66-0.842l1.008-1.888l3.437-7.618l0.282-0.473
				c0.018-0.029,0.037-0.058,0.058-0.084l0.847-1.058l0.353-0.324c0.032-0.028,0.065-0.055,0.1-0.078l0.257-0.173
				c0.044-0.03,0.091-0.056,0.141-0.077l0.258-0.113c0.053-0.023,0.108-0.041,0.165-0.054l0.258-0.058
				c0.064-0.015,0.13-0.022,0.196-0.022h0.286c0.066,0,0.132,0.008,0.196,0.022l0.258,0.058c0.057,0.013,0.112,0.03,0.166,0.054
				l0.258,0.113c0.049,0.021,0.096,0.048,0.14,0.077l0.257,0.173c0.035,0.023,0.068,0.049,0.099,0.077l0.612,0.611l0.589,0.771
				c0.021,0.027,0.04,0.055,0.057,0.084l1.085,2.021l1.354,3.114c0.188,0.46-0.033,0.985-0.494,1.173
				c-0.461,0.19-0.985-0.033-1.173-0.493l-1.305-3.006l-0.983-1.836l-0.891-1.053l-0.413-0.16l-0.18,0.063l-0.377,0.308
				l-0.659,0.842l-1.008,1.886l-3.438,7.621l-0.282,0.472c-0.018,0.029-0.037,0.058-0.058,0.084l-0.847,1.057l-0.353,0.325
				c-0.032,0.028-0.066,0.056-0.103,0.079l-0.257,0.172c-0.043,0.029-0.088,0.054-0.135,0.075l-0.258,0.114
				c-0.054,0.023-0.111,0.042-0.169,0.055l-0.258,0.058C14.448,25.424,14.382,25.432,14.316,25.432z"/>
		</g>
	</g>
</g>
</svg>
