<?xml version="1.0" encoding="utf-8"?>
<!-- Generator: Adobe Illustrator 15.0.0, SVG Export Plug-In . SVG Version: 6.00 Build 0)  -->
<!DOCTYPE svg PUBLIC "-//W3C//DTD SVG 1.1//EN" "http://www.w3.org/Graphics/SVG/1.1/DTD/svg11.dtd">
<svg version="1.1" id="Layer_1" xmlns="http://www.w3.org/2000/svg" xmlns:xlink="http://www.w3.org/1999/xlink" x="0px" y="0px"
	 width="28.348px" height="28.348px" viewBox="0 0 28.348 28.348" enable-background="new 0 0 28.348 28.348" xml:space="preserve">
<g>
	<g>
		<g>
			<path fill="#F68A1F" d="M16.814,4.48C18.3,4.92,19.7,5.726,20.871,6.897c1.583,1.582,2.489,3.582,2.74,5.646l1.594-1.146
				c-0.434-2.105-1.459-4.112-3.092-5.742c-1.234-1.237-2.688-2.113-4.232-2.663L16.814,4.48z"/>
		</g>
		<g>
			<path fill="#F68A1F" d="M4.604,11.825c0.357-1.807,1.234-3.53,2.633-4.928C8.408,5.725,9.808,4.92,11.293,4.48l-1.066-1.488
				C8.68,3.539,7.228,4.418,5.993,5.652c-1.455,1.456-2.425,3.213-2.927,5.069L4.604,11.825z"/>
		</g>
		<g>
			<path fill="#F68A1F" d="M22.753,17.847c-0.46,0.971-1.081,1.883-1.882,2.685c-1.362,1.36-3.033,2.223-4.792,2.598l1.104,1.537
				c1.807-0.512,3.511-1.474,4.93-2.893c0.87-0.867,1.563-1.846,2.092-2.886L22.753,17.847z"/>
		</g>
		<g>
			<path fill="#F68A1F" d="M12.025,23.129c-1.756-0.377-3.427-1.236-4.788-2.598c-1.001-1.001-1.729-2.175-2.197-3.423l-1.472,1.058
				c0.554,1.313,1.358,2.542,2.425,3.608c1.419,1.418,3.123,2.38,4.928,2.892L12.025,23.129z"/>
		</g>
	</g>
	<g>
		<polygon fill="#F68A1F" points="14.12,5.745 17.199,1.452 15.253,1.452 15.253,0.055 12.988,0.055 12.988,1.452 11.04,1.452 		"/>
	</g>
	<g>
		<polygon fill="#F68A1F" points="22.646,15.294 26.938,18.372 26.938,16.427 28.336,16.427 28.336,14.162 26.938,14.162 
			26.938,12.215 		"/>
	</g>
	<g>
		<polygon fill="#F68A1F" points="14.119,22.604 11.04,26.895 12.986,26.895 12.986,28.293 15.252,28.293 15.252,26.894 
			17.199,26.895 		"/>
	</g>
	<g>
		<polygon fill="#F68A1F" points="5.701,14.238 1.409,11.158 1.409,13.105 0.011,13.105 0.011,15.369 1.41,15.369 1.409,17.319 		
			"/>
	</g>
</g>
</svg>
