<?xml version="1.0" encoding="utf-8"?>
<!-- Generator: Adobe Illustrator 15.0.0, SVG Export Plug-In . SVG Version: 6.00 Build 0)  -->
<!DOCTYPE svg PUBLIC "-//W3C//DTD SVG 1.1//EN" "http://www.w3.org/Graphics/SVG/1.1/DTD/svg11.dtd">
<svg version="1.1" id="Layer_1" xmlns="http://www.w3.org/2000/svg" xmlns:xlink="http://www.w3.org/1999/xlink" x="0px" y="0px"
	 width="25.795px" height="25.795px" viewBox="0 0 25.795 25.795" enable-background="new 0 0 25.795 25.795" xml:space="preserve">
<g>
	<g>
		<path fill="#6D7071" d="M17.403,7.054H8.177c-0.697,0-1.264-0.648-1.264-1.446V1.51c0-0.798,0.567-1.448,1.264-1.448h9.227
			c0.697,0,1.264,0.649,1.264,1.448v4.098C18.667,6.405,18.101,7.054,17.403,7.054z M17.375,1.257L8.177,1.263
			C8.181,1.271,8.113,1.358,8.113,1.51v4.098c0,0.151,0.067,0.238,0.09,0.251l9.18-0.005c0.027-0.024,0.084-0.109,0.084-0.246V1.51
			C17.467,1.358,17.399,1.27,17.375,1.257z"/>
	</g>
	<g>
		<g>
			<polygon fill="#6D7071" points="4.499,22.217 2.355,23.599 2.355,22.726 0.991,22.724 0.991,21.71 2.355,21.709 2.355,20.834 			
				"/>
		</g>
	</g>
	<g>
		<path fill="#6D7071" d="M17.403,16.367H8.177c-0.697,0-1.264-0.647-1.264-1.445v-4.098c0-0.798,0.567-1.448,1.264-1.448h9.227
			c0.697,0,1.264,0.649,1.264,1.448v4.098C18.667,15.718,18.101,16.367,17.403,16.367z M17.375,10.57l-9.199,0.006
			c0.004,0.008-0.063,0.096-0.063,0.248v4.098c0,0.149,0.067,0.238,0.09,0.251l9.18-0.005c0.027-0.024,0.084-0.108,0.084-0.246
			v-4.098C17.467,10.672,17.399,10.583,17.375,10.57z"/>
	</g>
	<g>
		<path fill="#6D7071" d="M17.403,25.708H8.177c-0.697,0-1.264-0.648-1.264-1.445v-4.098c0-0.798,0.567-1.447,1.264-1.447h9.227
			c0.697,0,1.264,0.649,1.264,1.447v4.098C18.667,25.06,18.101,25.708,17.403,25.708z M17.375,19.912l-9.199,0.005
			c0.004,0.008-0.063,0.096-0.063,0.248v4.098c0,0.15,0.067,0.238,0.09,0.252l9.18-0.006c0.027-0.023,0.084-0.109,0.084-0.246
			v-4.098C17.467,20.013,17.399,19.924,17.375,19.912z"/>
	</g>
	<g>
		<g>
			<line fill="none" x1="0.859" y1="3.608" x2="0.859" y2="22.729"/>
		</g>
		<g>
			<rect x="0.371" y="3.608" fill="#6D7071" width="0.978" height="19.122"/>
		</g>
	</g>
	<g>
		<g>
			<line fill="none" x1="4.909" y1="3.18" x2="0.37" y2="3.18"/>
		</g>
		<g>
			<rect x="0.37" y="2.692" fill="#6D7071" width="4.54" height="0.978"/>
		</g>
	</g>
	<g>
		<g>
			<polygon fill="#6D7071" points="21.36,12.815 23.286,11.433 23.286,12.307 24.51,12.308 24.51,13.322 23.286,13.323 
				23.286,14.198 			"/>
		</g>
	</g>
	<g>
		<g>
			<line fill="none" x1="24.938" y1="22.874" x2="24.938" y2="12.302"/>
		</g>
		<g>
			<rect x="24.448" y="12.302" fill="#6D7071" width="0.979" height="10.571"/>
		</g>
	</g>
	<g>
		<g>
			<line fill="none" x1="20.95" y1="22.875" x2="25.426" y2="22.875"/>
		</g>
		<g>
			<rect x="20.95" y="22.386" fill="#6D7071" width="4.477" height="0.977"/>
		</g>
	</g>
</g>
</svg>
