<?xml version="1.0" encoding="utf-8"?>
<!-- Generator: Adobe Illustrator 15.0.0, SVG Export Plug-In . SVG Version: 6.00 Build 0)  -->
<!DOCTYPE svg PUBLIC "-//W3C//DTD SVG 1.1//EN" "http://www.w3.org/Graphics/SVG/1.1/DTD/svg11.dtd">
<svg version="1.1" id="Layer_1" xmlns="http://www.w3.org/2000/svg" xmlns:xlink="http://www.w3.org/1999/xlink" x="0px" y="0px"
	 width="30.156px" height="30.25px" viewBox="0 0 30.156 30.25" enable-background="new 0 0 30.156 30.25" xml:space="preserve">
<g>
	<path fill="none" stroke="#85B200" stroke-width="1.5" d="M6.459,3.326c0.752,0,1.363,0.485,1.363,1.082v19.859
		c0,0.6-0.611,1.083-1.363,1.083H2.285c-0.752,0-1.362-0.483-1.362-1.083V4.408c0-0.597,0.61-1.082,1.362-1.082H6.459z"/>
	<line fill="none" stroke="#85B200" stroke-width="1.5" x1="7.85" y1="20.316" x2="11.441" y2="20.316"/>
	<path fill="none" stroke="#85B200" stroke-width="1.5" d="M16.01,24.299c-0.375,0.375-0.985,0.376-1.36,0.002l-3.083-3.083
		c-0.376-0.376-0.375-0.987,0-1.361l3.041-3.044c0.376-0.374,0.988-0.374,1.362,0l3.084,3.083c0.375,0.376,0.373,0.987-0.002,1.361
		L16.01,24.299z"/>
	<line fill="none" stroke="#85B200" stroke-width="1.5" x1="18.943" y1="20.609" x2="23.255" y2="20.609"/>
	<path fill="none" stroke="#85B200" stroke-width="1.5" d="M29.123,22.708c0,0.53-0.431,0.963-0.961,0.963h-4.361
		c-0.53,0-0.962-0.433-0.962-0.963v-4.303c0-0.53,0.432-0.963,0.962-0.963h4.361c0.53,0,0.961,0.433,0.961,0.963V22.708z"/>
	<line fill="none" stroke="#85B200" stroke-width="1.5" x1="15.209" y1="13.063" x2="15.209" y2="16.551"/>
	<circle fill="none" stroke="#85B200" stroke-width="1.5" cx="15.175" cy="9.965" r="3.503"/>
</g>
</svg>
