<?xml version="1.0" encoding="utf-8"?>
<!-- Generator: Adobe Illustrator 15.0.0, SVG Export Plug-In . SVG Version: 6.00 Build 0)  -->
<!DOCTYPE svg PUBLIC "-//W3C//DTD SVG 1.1//EN" "http://www.w3.org/Graphics/SVG/1.1/DTD/svg11.dtd">
<svg version="1.1" id="Layer_1" xmlns="http://www.w3.org/2000/svg" xmlns:xlink="http://www.w3.org/1999/xlink" x="0px" y="0px"
	 width="28.348px" height="28.348px" viewBox="0 0 28.348 28.348" enable-background="new 0 0 28.348 28.348" xml:space="preserve">
<g>
	<g>
		<g>
			<g>
				<polygon fill="#F68A1F" points="9.765,22.391 11.883,18.797 14.003,15.203 16.066,18.855 18.128,22.508 13.947,22.45 				"/>
			</g>
		</g>
		<g>
			<path fill="#F68A1F" d="M12.571,19.462l-0.118,6.931l2.7,0.063l0.122-7.09C14.388,19.519,13.474,19.537,12.571,19.462z"/>
		</g>
	</g>
	<g>
		<g>
			<path fill="#F68A1F" d="M13.938,9.307c-0.548,0-1.015,0.195-1.398,0.592c-0.385,0.394-0.577,0.865-0.577,1.412
				c0,0.536,0.195,1,0.584,1.39c0.391,0.39,0.854,0.583,1.392,0.583c0.548,0,1.017-0.193,1.407-0.583
				c0.39-0.39,0.585-0.854,0.585-1.39c0-0.559-0.195-1.03-0.585-1.422C14.955,9.5,14.486,9.307,13.938,9.307z"/>
		</g>
	</g>
	<g>
		<g>
			<g>
				<polygon fill="#F68A1F" points="26.101,9.377 21.931,9.337 17.758,9.296 19.891,5.684 22.026,2.073 24.064,5.726 				"/>
			</g>
		</g>
		<g>
			<path fill="#F68A1F" d="M22.162,8.409l6.064-3.36l-1.294-2.37l-6.203,3.437C21.304,6.808,21.777,7.589,22.162,8.409z"/>
		</g>
	</g>
	<g>
		<g>
			<g>
				<polygon fill="#F68A1F" points="2.154,9.195 6.325,9.155 10.497,9.115 8.364,5.502 6.229,1.892 4.191,5.543 				"/>
			</g>
		</g>
		<g>
			<path fill="#F68A1F" d="M6.094,8.228l-6.065-3.36l1.294-2.37l6.203,3.436C6.951,6.626,6.479,7.408,6.094,8.228z"/>
		</g>
	</g>
</g>
</svg>
