<?xml version="1.0" encoding="utf-8"?>
<!-- Generator: Adobe Illustrator 15.0.0, SVG Export Plug-In . SVG Version: 6.00 Build 0)  -->
<!DOCTYPE svg PUBLIC "-//W3C//DTD SVG 1.1//EN" "http://www.w3.org/Graphics/SVG/1.1/DTD/svg11.dtd">
<svg version="1.1" id="Layer_1" xmlns="http://www.w3.org/2000/svg" xmlns:xlink="http://www.w3.org/1999/xlink" x="0px" y="0px"
	 width="28.348px" height="28.348px" viewBox="0 0 28.348 28.348" enable-background="new 0 0 28.348 28.348" xml:space="preserve">
<g>
	<path fill="#6D6F71" d="M26.732,22.704c0.006,2.124-1.706,3.851-3.826,3.854L5.522,26.62c-2.117,0.005-3.842-1.707-3.849-3.829
		L1.614,5.642C1.609,3.521,3.319,1.795,5.44,1.79l17.382-0.063c2.118-0.008,3.843,1.707,3.849,3.829L26.732,22.704z"/>
</g>
<g>
	<path fill="#FFFFFF" d="M22.407,22.906c0,0.615-0.518,1.114-1.156,1.114l0,0c-0.637,0-1.153-0.499-1.153-1.114V4.665
		c0-0.617,0.518-1.117,1.153-1.117l0,0c0.64,0,1.156,0.5,1.156,1.117V22.906z"/>
</g>
<g>
	<path fill="#FFFFFF" d="M15.328,22.906c0,0.615-0.518,1.114-1.155,1.114l0,0c-0.639,0-1.153-0.499-1.153-1.114V4.665
		c0-0.617,0.516-1.117,1.153-1.117l0,0c0.639,0,1.155,0.5,1.155,1.117V22.906z"/>
</g>
<g>
	<path fill="#FFFFFF" d="M8.371,22.906c0,0.615-0.517,1.114-1.153,1.114l0,0c-0.638,0-1.154-0.499-1.154-1.114V4.665
		c0-0.617,0.518-1.117,1.154-1.117l0,0c0.638,0,1.153,0.5,1.153,1.117V22.906z"/>
</g>
<g>
	<circle fill="#FFFFFF" cx="21.252" cy="10.78" r="2.449"/>
	<path fill="#6D6E71" d="M21.251,13.479c-1.486,0-2.696-1.21-2.696-2.698c0-1.489,1.21-2.7,2.696-2.7c1.489,0,2.7,1.211,2.7,2.7
		C23.951,12.269,22.74,13.479,21.251,13.479z M21.251,8.58c-1.212,0-2.196,0.987-2.196,2.2c0,1.212,0.984,2.198,2.196,2.198
		c1.213,0,2.2-0.986,2.2-2.198C23.451,9.567,22.464,8.58,21.251,8.58z"/>
</g>
<g>
	<circle fill="#FFFFFF" cx="14.171" cy="15.679" r="2.449"/>
	<path fill="#6D6E71" d="M14.172,18.376c-1.487,0-2.698-1.21-2.698-2.696c0-1.489,1.211-2.7,2.698-2.7
		c1.488,0,2.698,1.211,2.698,2.7C16.87,17.166,15.66,18.376,14.172,18.376z M14.172,13.479c-1.213,0-2.198,0.986-2.198,2.2
		c0,1.212,0.985,2.196,2.198,2.196c1.212,0,2.198-0.984,2.198-2.196C16.37,14.466,15.384,13.479,14.172,13.479z"/>
</g>
<g>
	<circle fill="#FFFFFF" cx="7.216" cy="9.324" r="2.449"/>
	<path fill="#6D6E71" d="M7.216,12.023c-1.487,0-2.697-1.211-2.697-2.699c0-1.487,1.21-2.697,2.697-2.697
		c1.488,0,2.699,1.21,2.699,2.697C9.915,10.813,8.704,12.023,7.216,12.023z M7.216,7.127c-1.212,0-2.197,0.985-2.197,2.197
		c0,1.213,0.985,2.199,2.197,2.199c1.214,0,2.199-0.986,2.199-2.199C9.415,8.112,8.429,7.127,7.216,7.127z"/>
</g>
</svg>
