<?xml version="1.0" encoding="utf-8"?>
<!-- Generator: Adobe Illustrator 15.0.0, SVG Export Plug-In . SVG Version: 6.00 Build 0)  -->
<!DOCTYPE svg PUBLIC "-//W3C//DTD SVG 1.1//EN" "http://www.w3.org/Graphics/SVG/1.1/DTD/svg11.dtd">
<svg version="1.1" id="Layer_1" xmlns="http://www.w3.org/2000/svg" xmlns:xlink="http://www.w3.org/1999/xlink" x="0px" y="0px"
	 width="28.348px" height="28.348px" viewBox="0 0 28.348 28.348" enable-background="new 0 0 28.348 28.348" xml:space="preserve">
<g>
	<path fill="#84B240" d="M17.275,21.35h-6.202c-0.474,0-0.863,0.378-0.863,0.84s0.39,0.842,0.863,0.842h6.202
		c0.474,0,0.861-0.38,0.861-0.842S17.749,21.35,17.275,21.35z"/>
</g>
<g>
	<path fill="#84B240" d="M16.197,24.026H12.15c-0.475,0-0.861,0.379-0.861,0.842s0.387,0.841,0.861,0.841h4.046
		c0.474,0,0.861-0.378,0.861-0.841S16.671,24.026,16.197,24.026z"/>
</g>
<g>
	<path fill="#84B240" d="M14.175,3.777c-3.908,0-7.077,3.168-7.077,7.077c0,2.237,1.579,4.188,1.579,4.188
		c0.598,0.736,1.087,2.114,1.087,3.063v0.549c0,0.947,0.774,1.724,1.723,1.724h5.242c0.947,0,1.723-0.775,1.723-1.724v-0.446
		c0-0.947,0.5-2.316,1.109-3.044c0,0,1.689-2.01,1.689-4.309C21.25,6.945,18.082,3.777,14.175,3.777z M18.221,14.397
		c-0.459,0.544-0.834,1.573-0.834,2.285v0.337c0,0.713-0.582,1.294-1.296,1.294h-3.938c-0.712,0-1.295-0.581-1.295-1.294v-0.412
		c0-0.712-0.367-1.75-0.815-2.301c0,0-1.187-1.469-1.187-3.148c0-2.938,2.38-5.317,5.317-5.317s5.317,2.381,5.317,5.317
		C19.492,12.886,18.221,14.397,18.221,14.397z"/>
</g>
<g>
	<path fill="#84B240" d="M14.976,26.623h-1.604c-0.187,0-0.34,0.284-0.34,0.631c0,0.35,0.153,0.633,0.34,0.633h1.604
		c0.187,0,0.342-0.283,0.342-0.633C15.317,26.907,15.163,26.623,14.976,26.623z"/>
</g>
<g>
	
		<rect x="21.19" y="0.45" transform="matrix(-0.7071 -0.7071 0.7071 -0.7071 35.8292 20.2672)" fill="#84B240" width="1.845" height="4.526"/>
</g>
<g>
	<rect x="23.715" y="9.671" fill="#84B240" width="4.524" height="1.846"/>
</g>
<g>
	
		<rect x="22.794" y="15.439" transform="matrix(0.7068 -0.7074 0.7074 0.7068 -5.5686 21.9652)" fill="#84B240" width="1.844" height="4.524"/>
</g>
<g>
	
		<rect x="3.517" y="15.438" transform="matrix(0.7068 0.7074 -0.7074 0.7068 13.8222 2.0497)" fill="#84B240" width="1.842" height="4.525"/>
</g>
<g>
	<rect x="0.108" y="9.793" fill="#84B240" width="4.523" height="1.846"/>
</g>
<g>
	
		<rect x="5.191" y="0.454" transform="matrix(-0.7071 0.7071 -0.7071 -0.7071 12.3582 0.3142)" fill="#84B240" width="1.845" height="4.524"/>
</g>
</svg>
