<?xml version="1.0" encoding="utf-8"?>
<!-- Generator: Adobe Illustrator 15.0.0, SVG Export Plug-In . SVG Version: 6.00 Build 0)  -->
<!DOCTYPE svg PUBLIC "-//W3C//DTD SVG 1.1//EN" "http://www.w3.org/Graphics/SVG/1.1/DTD/svg11.dtd">
<svg version="1.1" id="Layer_1" xmlns="http://www.w3.org/2000/svg" xmlns:xlink="http://www.w3.org/1999/xlink" x="0px" y="0px"
	 width="28.348px" height="28.348px" viewBox="0 0 28.348 28.348" enable-background="new 0 0 28.348 28.348" xml:space="preserve">
<g>
	<path fill="#F68A1F" d="M24.203,14.571c0-1.524-0.91-2.524-2.485-2.524l-0.022-0.315c-0.188-1.066-1.362-1.637-2.599-1.637
		c-0.061,0-0.184,0.019-0.24,0.025c-0.384-1.085-1.344-1.857-2.598-1.857c-0.333,0-0.863,0.112-1.162,0.216l-0.016-5.95
		c-0.041-1.593-1.136-2.474-2.709-2.474c-1.571,0-2.734,0.953-2.734,2.474v8.3l-0.448,0.135c-0.361,0.114-2.247,1.208-2.978,3.377
		c-0.073,0.221-0.277,1.094-0.317,1.574c-0.173,2.09,0.02,3.537,0.467,4.451c0.663,1.347,2.331,3.773,3.139,4.612v3.314h1.372
		l0.062-3.586c0-0.235-0.252-0.729-0.422-0.9c-0.83-0.841-2.688-2.936-3.009-4.188c-0.446-1.949-0.361-2.727-0.279-3.723
		c0.046-0.547,0.244-1.098,0.296-1.354c0.153-0.798,1.414-1.865,2.115-2.155l-0.025,2.103c-0.002,0.027-0.094,0.733-0.643,1.342
		c-0.371,0.361-0.622,0.699-0.251,1.06c0.185,0.181,0.259,0.215,0.546,0.219c0.274,0.003,0.561-0.2,0.561-0.2
		c1.223-0.99,1.329-2.326,1.329-2.458L11.135,2.526c0-0.506,0.332-1.17,1.202-1.17c0.883,0,1.286,0.717,1.286,1.226l-0.039,8.306
		l0.039,3.651c0,0.51,0.16,0.851,0.687,0.851c0.525,0,0.758-0.362,0.758-0.872l0.057-3.678c0-0.507,0.173-0.937,1.037-0.951
		c0.766-0.012,0.951,0.416,0.951,0.921v3.681c0,0.511,0.309,0.909,0.833,0.909c0.527,0,0.926-0.357,0.926-0.869l-0.015-2.984
		c0.524,0,1.36,0.484,1.36,0.991l-0.025,2.875c0,0.51,0.313,0.911,0.837,0.911c0.527,0,0.839-0.404,0.839-0.913v-1.816
		c0.468,0.061,0.834,0.437,0.834,0.945c0.073,1.324,0.218,5.021,0.015,6.244c-0.11,0.645-1.069,1.718-2.897,2.801
		c-0.321,0.154-0.812,0.706-0.812,1.056l-0.11,3.653h1.367l0.177-3.247c1.78-0.986,3.427-2.542,3.678-4.018
		C24.392,19.391,24.229,15.029,24.203,14.571z"/>
</g>
</svg>
