<?xml version="1.0" encoding="utf-8"?>
<!-- Generator: Adobe Illustrator 15.0.0, SVG Export Plug-In . SVG Version: 6.00 Build 0)  -->
<!DOCTYPE svg PUBLIC "-//W3C//DTD SVG 1.1//EN" "http://www.w3.org/Graphics/SVG/1.1/DTD/svg11.dtd">
<svg version="1.1" id="Layer_1" xmlns="http://www.w3.org/2000/svg" xmlns:xlink="http://www.w3.org/1999/xlink" x="0px" y="0px"
	 width="28.348px" height="28.348px" viewBox="0 0 28.348 28.348" enable-background="new 0 0 28.348 28.348" xml:space="preserve">
<g>
	<path fill="#1A4E76" d="M23.446,6.271c0.381-0.698,0.104-1.583-0.619-1.977l-6.279-3.417c-0.721-0.393-1.614-0.144-1.996,0.556
		l-1.045,1.923L22.4,8.195L23.446,6.271z"/>
</g>
<g>

		<rect x="16.978" y="1.733" transform="matrix(-0.4789 0.8779 -0.8779 -0.4789 31.6977 -5.205)" fill="#1A4E76" width="0.832" height="10.146"/>
</g>
<g>
	<path fill="#1A4E76" d="M10.538,25.558c0.945-0.405,1.969-0.847,3.008-1.291L4.729,19.47c0.188,1.105,0.373,2.197,0.547,3.207"/>
</g>
<g>

		<rect x="8.624" y="5.235" transform="matrix(-0.8785 -0.4778 0.4778 -0.8785 12.6061 28.5748)" fill="#1A4E76" width="2.625" height="14.899"/>
</g>
<g>

		<rect x="11.815" y="6.955" transform="matrix(-0.8783 -0.4782 0.4782 -0.8783 17.7682 33.3319)" fill="#1A4E76" width="2.624" height="14.898"/>
</g>
<g>

		<rect x="15.219" y="8.807" transform="matrix(-0.8786 -0.4776 0.4776 -0.8786 23.2913 38.4356)" fill="#1A4E76" width="2.625" height="14.9"/>
</g>
<g>
	<path fill="#1A4E76" d="M5.919,27.653c0.121-0.053,2.104-0.901,4.162-1.785l-4.924-2.68C5.532,25.396,5.897,27.522,5.919,27.653z"
		/>
</g>
</svg>
