<?xml version="1.0" encoding="utf-8"?>
<!-- Generator: Adobe Illustrator 15.0.0, SVG Export Plug-In . SVG Version: 6.00 Build 0)  -->
<!DOCTYPE svg PUBLIC "-//W3C//DTD SVG 1.1//EN" "http://www.w3.org/Graphics/SVG/1.1/DTD/svg11.dtd">
<svg version="1.1" id="Layer_1" xmlns="http://www.w3.org/2000/svg" xmlns:xlink="http://www.w3.org/1999/xlink" x="0px" y="0px"
	 width="28.348px" height="28.348px" viewBox="0 0 28.348 28.348" enable-background="new 0 0 28.348 28.348" xml:space="preserve">
<g>
	<path fill="#1A4E76" d="M27.124,12.205h-1.145c-0.348,0-0.71-0.269-0.807-0.6l-1.558-3.639c-0.166-0.298-0.113-0.739,0.131-0.983
		l0.775-0.773c0.244-0.245,0.244-0.643,0-0.885L22.658,3.46c-0.244-0.244-0.64-0.244-0.888,0l-0.839,0.845
		c-0.246,0.242-0.696,0.31-0.997,0.149l-3.167-1.265c-0.33-0.093-0.603-0.453-0.603-0.795V1.221c0-0.344-0.282-0.623-0.624-0.623
		h-2.639c-0.343,0-0.625,0.279-0.625,0.623v1.174c0,0.342-0.271,0.704-0.596,0.806L8.009,4.772C7.715,4.944,7.276,4.887,7.031,4.646
		L6.208,3.821c-0.242-0.242-0.639-0.242-0.882,0L3.459,5.688c-0.245,0.244-0.245,0.643,0,0.884l0.896,0.899
		C4.602,7.716,4.668,8.159,4.51,8.466l-1.25,3.138c-0.09,0.334-0.447,0.603-0.795,0.603H1.221c-0.344,0-0.622,0.28-0.622,0.623
		v2.641c0,0.346,0.278,0.627,0.622,0.627h1.243c0.348,0,0.707,0.267,0.809,0.598l1.532,3.61c0.176,0.296,0.114,0.737-0.124,0.98
		l-0.86,0.854c-0.242,0.241-0.242,0.639,0,0.881l1.87,1.867c0.244,0.242,0.64,0.242,0.88,0l0.917-0.912
		c0.244-0.243,0.685-0.31,0.991-0.146l3.202,1.278c0.324,0.094,0.596,0.455,0.596,0.795v1.223c0,0.345,0.282,0.624,0.625,0.624
		h2.639c0.341,0,0.624-0.279,0.624-0.624v-1.223c0-0.34,0.269-0.701,0.603-0.801l3.58-1.521c0.297-0.168,0.734-0.108,0.981,0.131
		l0.808,0.813c0.243,0.241,0.64,0.241,0.884,0l1.868-1.869c0.243-0.241,0.243-0.64,0-0.882l-0.862-0.859
		c-0.238-0.243-0.306-0.688-0.145-0.991l1.298-3.229c0.09-0.332,0.453-0.599,0.801-0.604h1.145c0.341,0,0.624-0.278,0.624-0.622
		v-2.641C27.748,12.485,27.465,12.205,27.124,12.205z M14.174,20.314c-3.392,0-6.142-2.75-6.142-6.143
		c0-3.392,2.75-6.142,6.142-6.142c3.393,0,6.143,2.75,6.143,6.142C20.316,17.564,17.566,20.314,14.174,20.314z"/>
</g>
</svg>
